# xmcd
#
# Track frame offsets:
#	150
#	17771
#	32712
#	44949
#	59273
#	76338
#	95085
#	104586
#	123459
#	137242
#	149917
#	163115
#	174727
#	189638
#	205838
#	221360
#	250073
#
# Disc length: 3551 seconds
#
# Revision: 0
# Processed by: cddbd v1.5.2PL0 Copyright (c) Steve Scherf et al.
# Submitted via: EasyCDDAExtractor 9.1.1.5
#
DISCID=0a0ddd11
DTITLE=Ray Dylan - Goeie Ou Country
DYEAR=2009
DGENRE=Country
TTITLE0=Why Don't You Spend The Night
TTITLE1=Heart
TTITLE2=Folsom Prison Blues
TTITLE3=My Special Prayer
TTITLE4=Lucille
TTITLE5=Islands In The Streem ( Elisma Theron )
TTITLE6=From A Jack To A King
TTITLE7=Cry To Me
TTITLE8=Help Me Make It Through The Night
TTITLE9=Distant Drums
TTITLE10=Wasted Days And Wasted Nights
TTITLE11=Put Your Hand In The Hand
TTITLE12=Patches
TTITLE13=Blue Eyes Crying In The Rain
TTITLE14=Rocky
TTITLE15=John Denver Medley( Annie's Song, Back Home Again, Country Roads)
TTITLE16=I Can't Stop Loving You
EXTD=
EXTT0=
EXTT1=
EXTT2=
EXTT3=
EXTT4=
EXTT5=
EXTT6=
EXTT7=
EXTT8=
EXTT9=
EXTT10=
EXTT11=
EXTT12=
EXTT13=
EXTT14=
EXTT15=
EXTT16=
PLAYORDER=
